<?xml version="1.0" encoding="UTF-8"?>
<svg xmlns="http://www.w3.org/2000/svg" xmlns:xlink="http://www.w3.org/1999/xlink" width="854" height="480" viewBox="0 0 854 480">
<defs>
<g>
<g id="glyph-0-0">
<path d="M 0.328125 0 L 0.328125 -0.3125 L 2.578125 -3.734375 L 1.375 -3.734375 C 1.164062 -3.734375 1.023438 -3.675781 0.953125 -3.5625 C 0.890625 -3.457031 0.828125 -3.300781 0.765625 -3.09375 L 0.765625 -3.0625 L 0.4375 -3.0625 L 0.515625 -4.171875 L 3.5 -4.171875 L 3.5 -3.859375 L 1.234375 -0.4375 L 2.640625 -0.4375 C 2.828125 -0.4375 2.953125 -0.5 3.015625 -0.625 C 3.085938 -0.757812 3.140625 -0.910156 3.171875 -1.078125 L 3.21875 -1.265625 L 3.546875 -1.265625 L 3.5 0 Z "/>
</g>
<g id="glyph-0-1">
<path d="M 0.484375 0.765625 L 0.484375 0.5 L 0.90625 0.5 C 1 0.5 1.078125 0.484375 1.140625 0.453125 C 1.203125 0.421875 1.234375 0.335938 1.234375 0.203125 L 1.234375 -2.03125 C 1.078125 -1.894531 0.960938 -1.800781 0.890625 -1.75 C 0.816406 -1.707031 0.722656 -1.6875 0.609375 -1.6875 C 0.523438 -1.6875 0.457031 -1.71875 0.40625 -1.78125 C 0.351562 -1.84375 0.328125 -1.921875 0.328125 -2.015625 C 0.398438 -2.023438 0.472656 -2.035156 0.546875 -2.046875 C 0.628906 -2.054688 0.738281 -2.09375 0.875 -2.15625 C 1.007812 -2.226562 1.203125 -2.347656 1.453125 -2.515625 L 1.546875 -2.59375 L 1.9375 -2.59375 L 1.9375 0.203125 C 1.9375 0.335938 1.96875 0.421875 2.03125 0.453125 C 2.09375 0.484375 2.164062 0.5 2.25 0.5 L 2.609375 0.5 L 2.609375 0.765625 Z "/>
</g>
</g>
</defs>
<g fill="rgb(51.372549%, 75.686275%, 40.392157%)" fill-opacity="1">
<use xlink:href="#glyph-0-0" x="30" y="28.314453"/>
<use xlink:href="#glyph-0-1" x="34" y="28.314453"/>
</g>
</svg>
